<svg version="1.2" xmlns="http://www.w3.org/2000/svg" viewBox="0 0 100 100" width="100" height="100">
	<title>reshot-icon-motivation-XBQDLVYW2U</title>
	<style>
		.s0 { fill: #382b73 } 
		.s1 { fill: #473080 } 
		.s2 { fill: #e7ad27 } 
		.s3 { fill: #f7cb15 } 
		.s4 { fill: #fede3a } 
		.s5 { fill: #bcbec0 } 
		.s6 { fill: #ffffff } 
		.s7 { fill: #fff335 } 
	</style>
	<g>
		<g>
			<g>
				<g>
					<path fill-rule="evenodd" class="s0" d="m49.9 99.9c-27.5 0-49.8-22.3-49.8-49.9 0-27.6 22.3-49.9 49.8-49.9 27.6 0 49.8 22.3 49.8 49.9 0 27.6-22.2 49.9-49.8 49.9z"/>
					<path fill-rule="evenodd" class="s1" d="m49.9 93.1c-23.8 0-43.1-19.2-43.1-43.1 0-23.9 19.3-43.1 43.1-43.1 23.9 0 43.1 19.2 43.1 43.1 0 23.9-19.2 43.1-43.1 43.1z"/>
				</g>
				<path class="s0" d="m74.1 33.2h-10.2v-1.9-1.5-1.4c0-1.1-0.9-1.9-1.9-1.9h-2.7-18.7-2.7c-1.1 0-1.9 0.8-1.9 1.9v1.4 1.5 1.9h-10.2c-1.1 0-1.9 0.8-1.9 1.9 0 5.1 1.6 9.8 4.4 13.5 2.5 3.1 5.6 5.1 9 5.6q0.1 0.3 0.2 0.5 0.4 0.7 0.8 1.3 0.1 0.1 0.2 0.3 0.4 0.6 0.9 1.1 0.1 0.2 0.3 0.3 0.2 0.3 0.4 0.5 0.9 0.9 2 1.6 0.1 0.1 0.3 0.3 0.8 0.4 1.5 0.8 0.9 0.5 1.9 0.8 0 0 0 0.1 0.1 0.4 0.2 0.8 0 0.1 0 0.1 0.1 0.3 0.1 0.5 0 0.1 0 0.1 0.1 0.5 0.1 1c0.5 3.3 0.4 6.7-0.2 10.1h-5q-0.5 0-0.9 0.1-0.1 0-0.1 0-0.2 0-0.4 0.1-0.1 0-0.1 0-0.6 0.2-1.1 0.5-0.1 0.1-0.2 0.1-0.1 0.1-0.3 0.2-0.1 0.1-0.2 0.2c-0.8 0.7-1.4 1.7-1.6 2.9q0 0 0 0.1 0 0-0.1 0.1 0 0 0 0.1 0 0.1 0 0.1 0 0.1 0 0.1 0 0.1 0 0.1 0 0.1 0 0.3 0 0.1 0 0.1 0 0 0 0.1 0 0 0 0 0.1 0.5 0.5 0.9c0.3 0.3 0.7 0.5 1.2 0.5h6.4 2.4 6.9 2.4 6.4c0.5 0 0.9-0.2 1.2-0.5q0.4-0.3 0.5-0.9 0 0 0 0 0-0.1 0-0.1 0-0.1 0-0.1 0-0.1 0-0.3 0 0 0-0.1 0 0 0-0.1 0 0 0-0.1 0-0.1 0-0.1 0-0.1-0.1-0.1 0-0.1 0-0.1c-0.2-1.2-0.8-2.2-1.6-2.9q-0.1-0.1-0.2-0.2-0.2-0.1-0.3-0.2-0.1 0-0.2-0.1-0.5-0.3-1.1-0.5 0 0-0.1 0-0.2-0.1-0.4-0.1 0 0-0.1 0-0.4-0.1-0.9-0.1h-5c-0.6-3.4-0.7-6.8-0.2-10.1q0-0.5 0.1-1 0 0 0-0.1 0-0.2 0.1-0.5 0 0 0-0.1 0.1-0.4 0.2-0.8 0-0.1 0-0.1 1-0.4 1.9-0.8 0.8-0.4 1.5-0.8 0.2-0.2 0.3-0.3 1.1-0.7 2-1.6 0.2-0.2 0.4-0.5 0.2-0.1 0.3-0.3 0.5-0.5 0.9-1.1 0.1-0.2 0.2-0.3 0.4-0.6 0.8-1.3 0.1-0.2 0.2-0.5c3.4-0.6 6.5-2.5 9-5.6 2.8-3.7 4.4-8.4 4.4-13.5 0-1.1-0.9-1.9-1.9-1.9zm-4.2 11.1q-0.1 0.3-0.3 0.6-0.1 0.1-0.2 0.2-0.4 0.6-0.8 1.2-0.1 0.2-0.3 0.3-0.4 0.5-0.8 0.9-0.4 0.5-0.9 0.8-0.3 0.3-0.6 0.5 0 0-0.1 0-0.4 0.3-0.8 0.5-0.1 0.1-0.2 0.1-0.4 0.3-0.9 0.5-0.1 0-0.3 0.1 0.1-0.8 0.1-1.7v-2.9-8.5h7.6q0.2 0 0.3 0.1 0 0 0.1 0.1 0.1 0 0.1 0.1 0 0 0.1 0.1 0 0 0 0.1 0.1 0.1 0.1 0.2c-0.3 2.4-1.1 4.7-2.1 6.5q0 0.1-0.1 0.2zm-35 5.1q-0.1 0-0.2-0.1-0.4-0.2-0.7-0.4-0.1-0.1-0.2-0.1-0.3-0.2-0.5-0.5-0.5-0.3-0.9-0.7-0.5-0.5-0.9-0.9-0.1-0.2-0.2-0.4-0.5-0.6-0.9-1.2-0.1-0.1-0.1-0.2-0.2-0.3-0.4-0.6 0-0.1-0.1-0.1c-1-1.9-1.7-4.1-2-6.5q0-0.2 0-0.3 0-0.1 0.1-0.1 0-0.1 0-0.1 0.1-0.1 0.1-0.1 0.1 0 0.1-0.1 0.2 0 0.3 0h7.6v8.4 2.9q0 0.9 0.1 1.7-0.1 0-0.2-0.1-0.5-0.2-1-0.5z"/>
				<g>
					<path class="s2" d="m55.8 53.5c-3.2 8-3.2 17 0 25h-11.7c3.2-8 3.2-17 0-25z"/>
					<path class="s3" d="m53.4 53.5c-1.9 8-1.9 17 0 25h-6.9c1.9-8 1.9-17 0-25z"/>
					<g>
						<g>
							<g>
								<path class="s3" d="m60.5 51.9v-3.8c5.8 0 10.6-5.6 11.6-12.9 0-0.4-0.3-0.8-0.7-0.8h-10.9v-3.7h13.6c1 0 1.9 0.8 1.9 1.9 0 5-1.6 9.8-4.4 13.5-3 3.7-6.9 5.8-11.1 5.8z"/>
							</g>
							<path class="s2" d="m69.9 45.3c2.4-3 3.7-7.1 3.7-11.4 0-0.9-0.7-1.6-1.6-1.6h-11.5v2.1h10.9c0.4 0 0.7 0.4 0.7 0.8-1 7.3-5.8 12.9-11.6 12.9v2.2c3.5 0 6.9-1.8 9.4-5z"/>
						</g>
						<g>
							<g>
								<path class="s3" d="m39.4 51.9v-3.8c-5.8 0-10.7-5.6-11.6-12.9 0-0.4 0.3-0.8 0.6-0.8h11v-3.7h-13.6c-1.1 0-1.9 0.8-1.9 1.9 0 5 1.6 9.8 4.4 13.5 2.9 3.7 6.9 5.8 11.1 5.8z"/>
							</g>
							<path class="s2" d="m30 45.3c-2.4-3-3.8-7.1-3.8-11.4 0-0.9 0.8-1.6 1.6-1.6h11.6v2.1h-11c-0.3 0-0.6 0.4-0.6 0.8 0.9 7.3 5.8 12.9 11.6 12.9v2.2c-3.6 0-6.9-1.8-9.4-5z"/>
						</g>
					</g>
					<path class="s2" d="m44.1 53.5q1.6 4 2.1 8.3 1.8 0.5 3.7 0.5 1.9 0 3.7-0.5 0.5-4.3 2.1-8.3z"/>
					<path class="s3" d="m49.9 59.8c-7.7 0-13.9-6.3-13.9-14v-19.9c0-1.1 0.8-1.9 1.9-1.9h24.1c1 0 1.9 0.8 1.9 1.9v19.9c0 7.7-6.3 14-14 14z"/>
					<path class="s4" d="m49.9 59.8c-5.9 0-10.8-4.9-10.8-10.8v-23.6c0-0.8 0.7-1.4 1.5-1.4h18.7c0.8 0 1.4 0.6 1.4 1.4v23.6c0 5.9-4.8 10.8-10.8 10.8z"/>
					<path class="s2" d="m57.9 37.6q0-0.3-0.2-0.5 0 0-0.1 0 0 0 0 0 0-0.1-0.1-0.1 0 0 0 0 0 0-0.1 0 0 0-0.1 0h-4.8q-0.1 0-0.3-0.1-0.2-0.1-0.2-0.3l-0.5-1.5-1-3.1q-0.1-0.1-0.2-0.2c-0.2-0.2-0.6-0.2-0.8 0q-0.1 0.1-0.1 0.2l-1 3.1-0.5 1.5q-0.1 0.2-0.3 0.3-0.1 0.1-0.3 0.1h-4.7q-0.1 0-0.2 0 0 0 0 0 0 0-0.1 0 0 0 0 0.1 0 0-0.1 0 0 0 0 0c-0.1 0.1-0.2 0.3-0.2 0.5v1.8q0 0 0 0c0 0.2 0 0.4 0.2 0.5l3.7 2.7-1.1 3.5q0 0.1 0 0.2 0 0 0 0.1v1.7q0 0 0 0.1c0 0.4 0.5 0.7 0.9 0.4l3.9-2.8c0.2-0.1 0.5-0.1 0.7 0l3.8 2.8c0.4 0.3 1 0 1-0.4q0-0.1 0-0.1v-1.7q0-0.1 0-0.1 0-0.1-0.1-0.2l-1.1-3.5 3.7-2.7c0.2-0.1 0.3-0.3 0.3-0.5q0 0 0 0v-1.8z"/>
					<g>
						<path class="s5" d="m44.8 46.9q0 0 0 0c0 0.4 0.5 0.8 0.9 0.5l3.9-2.9c0.2-0.1 0.5-0.1 0.7 0l3.8 2.9c0.4 0.3 1-0.1 1-0.5q0 0 0 0v-1.8q0 0 0 0 0-0.1-0.1-0.3l-1.1-3.4 3.7-2.7c0.2-0.2 0.3-0.4 0.3-0.5q0 0 0-0.1v-1.7q0-0.1 0-0.1c0-0.3-0.2-0.6-0.6-0.6h-4.8c-0.3 0-0.5-0.1-0.6-0.4l-1.4-4.5c-0.2-0.6-1-0.6-1.2 0l-1.4 4.5c-0.1 0.3-0.3 0.4-0.6 0.4h-4.7c-0.4 0-0.6 0.3-0.6 0.6q0 0 0 0.1v1.7q0 0.1 0 0.1c0 0.1 0 0.3 0.2 0.5l3.7 2.7-1.1 3.4q0 0.1 0 0.3 0 0 0 0z"/>
						<path class="s6" d="m50.5 30.8l1.5 4.6c0.1 0.2 0.3 0.4 0.5 0.4h4.8c0.6 0 0.8 0.7 0.4 1l-3.9 2.8c-0.2 0.2-0.3 0.4-0.2 0.7l1.5 4.5c0.1 0.6-0.5 1-0.9 0.7l-3.9-2.8c-0.2-0.2-0.5-0.2-0.7 0l-3.9 2.8c-0.4 0.3-1-0.1-0.9-0.7l1.5-4.5c0.1-0.3 0-0.5-0.2-0.7l-3.9-2.8c-0.4-0.3-0.2-1 0.4-1h4.8c0.2 0 0.5-0.2 0.5-0.4l1.5-4.6c0.2-0.5 0.9-0.5 1.1 0z"/>
					</g>
					<path class="s4" d="m62.2 78.5h-24.5c-1 0-1.7-0.7-1.7-1.6 0-2.8 2.2-5 5-5h17.9c2.7 0 5 2.2 5 5 0 0.9-0.8 1.6-1.7 1.6z"/>
					<path class="s7" d="m58.9 71.9h-17.9c-2.8 0-5 2.2-5 5q0 0.2 0.1 0.4c0.4-2.4 2.4-4.2 4.9-4.2h17.9c2.5 0 4.5 1.8 4.9 4.2q0.1-0.2 0.1-0.4c0-2.8-2.3-5-5-5z"/>
					<path class="s3" d="m62.2 76h-24.5c-0.6 0-1.1-0.3-1.4-0.7q-0.3 0.7-0.3 1.6c0 0.9 0.8 1.6 1.7 1.6h24.5c0.9 0 1.7-0.7 1.7-1.6q0-0.9-0.3-1.6c-0.3 0.4-0.8 0.7-1.4 0.7z"/>
					<path class="s3" d="m49.9 56.8c-7.7 0-13.9-6.2-13.9-13.9v2.9c0 7.7 6.2 14 13.9 14 7.7 0 14-6.3 14-14v-2.9c0 7.7-6.3 13.9-14 13.9z"/>
					<path fill-rule="evenodd" class="s3" d="m63.9 27.3v1.5h-27.9v-1.5z"/>
				</g>
			</g>
		</g>
	</g>
</svg>